<mxfile host="app.diagrams.net" agent="Mozilla/5.0 (Windows NT 10.0; Win64; x64) AppleWebKit/537.36 (KHTML, like Gecko) Chrome/135.0.0.0 Safari/537.36 Edg/135.0.0.0" version="26.1.1">
  <diagram name="Page-1" id="sdQgm5YWBPO6snxeIWbb">
    <mxGraphModel dx="1947" dy="1796" grid="1" gridSize="10" guides="1" tooltips="1" connect="1" arrows="1" fold="1" page="1" pageScale="1" pageWidth="850" pageHeight="1100" math="0" shadow="0">
      <root>
        <mxCell id="0" />
        <mxCell id="1" parent="0" />
        <mxCell id="FxGEw2DbVxyJyyO82ozZ-1" value="&lt;font style=&quot;font-size: 16px;&quot;&gt;Customer&lt;/font&gt;" style="html=1;whiteSpace=wrap;" vertex="1" parent="1">
          <mxGeometry x="130" y="160" width="80" height="40" as="geometry" />
        </mxCell>
        <mxCell id="FxGEw2DbVxyJyyO82ozZ-2" value="&lt;u&gt;&lt;font style=&quot;font-size: 14px;&quot;&gt;CustomerKey&lt;/font&gt;&lt;/u&gt;" style="ellipse;whiteSpace=wrap;html=1;" vertex="1" parent="1">
          <mxGeometry x="-90" y="165" width="100" height="30" as="geometry" />
        </mxCell>
        <mxCell id="FxGEw2DbVxyJyyO82ozZ-3" value="&lt;font style=&quot;font-size: 14px;&quot;&gt;Gender&lt;/font&gt;" style="ellipse;whiteSpace=wrap;html=1;" vertex="1" parent="1">
          <mxGeometry x="-40" y="110" width="70" height="30" as="geometry" />
        </mxCell>
        <mxCell id="FxGEw2DbVxyJyyO82ozZ-4" value="&lt;font style=&quot;font-size: 14px;&quot;&gt;Title&lt;/font&gt;" style="ellipse;whiteSpace=wrap;html=1;" vertex="1" parent="1">
          <mxGeometry x="150" y="20" width="60" height="30" as="geometry" />
        </mxCell>
        <mxCell id="FxGEw2DbVxyJyyO82ozZ-5" value="&lt;font style=&quot;font-size: 14px;&quot;&gt;StreetFull&lt;/font&gt;" style="ellipse;whiteSpace=wrap;html=1;" vertex="1" parent="1">
          <mxGeometry x="140" y="330" width="80" height="30" as="geometry" />
        </mxCell>
        <mxCell id="FxGEw2DbVxyJyyO82ozZ-6" value="&lt;font style=&quot;font-size: 14px;&quot;&gt;GivenName&lt;/font&gt;" style="ellipse;whiteSpace=wrap;html=1;" vertex="1" parent="1">
          <mxGeometry x="190" y="-10" width="90" height="30" as="geometry" />
        </mxCell>
        <mxCell id="FxGEw2DbVxyJyyO82ozZ-7" value="&lt;font style=&quot;font-size: 14px;&quot;&gt;ZipCode&lt;/font&gt;" style="ellipse;whiteSpace=wrap;html=1;" vertex="1" parent="1">
          <mxGeometry x="170" y="290" width="90" height="30" as="geometry" />
        </mxCell>
        <mxCell id="FxGEw2DbVxyJyyO82ozZ-8" value="&lt;font style=&quot;font-size: 14px;&quot;&gt;State&lt;/font&gt;" style="ellipse;whiteSpace=wrap;html=1;" vertex="1" parent="1">
          <mxGeometry x="90" y="370" width="60" height="30" as="geometry" />
        </mxCell>
        <mxCell id="FxGEw2DbVxyJyyO82ozZ-9" value="&lt;font style=&quot;font-size: 14px;&quot;&gt;Surname&lt;/font&gt;" style="ellipse;whiteSpace=wrap;html=1;" vertex="1" parent="1">
          <mxGeometry x="330" width="90" height="30" as="geometry" />
        </mxCell>
        <mxCell id="FxGEw2DbVxyJyyO82ozZ-10" value="&lt;font style=&quot;font-size: 14px;&quot;&gt;MiddleInitial&lt;/font&gt;" style="ellipse;whiteSpace=wrap;html=1;" vertex="1" parent="1">
          <mxGeometry x="240" y="20" width="100" height="30" as="geometry" />
        </mxCell>
        <mxCell id="FxGEw2DbVxyJyyO82ozZ-11" value="&lt;font style=&quot;font-size: 14px;&quot;&gt;City&lt;/font&gt;" style="ellipse;whiteSpace=wrap;html=1;" vertex="1" parent="1">
          <mxGeometry x="60" y="330" width="50" height="30" as="geometry" />
        </mxCell>
        <mxCell id="FxGEw2DbVxyJyyO82ozZ-12" value="&lt;font style=&quot;font-size: 14px;&quot;&gt;StreetAddress&lt;/font&gt;" style="ellipse;whiteSpace=wrap;html=1;" vertex="1" parent="1">
          <mxGeometry x="-40" y="360" width="100" height="30" as="geometry" />
        </mxCell>
        <mxCell id="FxGEw2DbVxyJyyO82ozZ-13" value="&lt;font style=&quot;font-size: 14px;&quot;&gt;Country&lt;/font&gt;" style="ellipse;whiteSpace=wrap;html=1;" vertex="1" parent="1">
          <mxGeometry x="-95" y="80" width="90" height="30" as="geometry" />
        </mxCell>
        <mxCell id="FxGEw2DbVxyJyyO82ozZ-14" value="&lt;font style=&quot;font-size: 14px;&quot;&gt;CountryFull&lt;/font&gt;" style="ellipse;whiteSpace=wrap;html=1;" vertex="1" parent="1">
          <mxGeometry x="-60" y="40" width="90" height="30" as="geometry" />
        </mxCell>
        <mxCell id="FxGEw2DbVxyJyyO82ozZ-15" value="&lt;font style=&quot;font-size: 14px;&quot;&gt;Occupation&lt;/font&gt;" style="ellipse;whiteSpace=wrap;html=1;" vertex="1" parent="1">
          <mxGeometry x="90" y="-10" width="90" height="30" as="geometry" />
        </mxCell>
        <mxCell id="FxGEw2DbVxyJyyO82ozZ-16" value="&lt;font style=&quot;font-size: 14px;&quot;&gt;Birthday&lt;/font&gt;" style="ellipse;whiteSpace=wrap;html=1;" vertex="1" parent="1">
          <mxGeometry x="-25" width="90" height="30" as="geometry" />
        </mxCell>
        <mxCell id="FxGEw2DbVxyJyyO82ozZ-17" value="&lt;font style=&quot;font-size: 14px;&quot;&gt;Age&lt;/font&gt;" style="ellipse;whiteSpace=wrap;html=1;" vertex="1" parent="1">
          <mxGeometry x="60" y="20" width="60" height="30" as="geometry" />
        </mxCell>
        <mxCell id="FxGEw2DbVxyJyyO82ozZ-18" value="&lt;font style=&quot;font-size: 14px;&quot;&gt;Continent&lt;/font&gt;" style="ellipse;whiteSpace=wrap;html=1;" vertex="1" parent="1">
          <mxGeometry x="-80" y="330" width="90" height="30" as="geometry" />
        </mxCell>
        <mxCell id="FxGEw2DbVxyJyyO82ozZ-19" value="&lt;font style=&quot;font-size: 14px;&quot;&gt;Longitude&lt;/font&gt;" style="ellipse;whiteSpace=wrap;html=1;" vertex="1" parent="1">
          <mxGeometry x="-95" y="290" width="90" height="30" as="geometry" />
        </mxCell>
        <mxCell id="FxGEw2DbVxyJyyO82ozZ-20" value="&lt;font style=&quot;font-size: 14px;&quot;&gt;Latitude&lt;/font&gt;" style="ellipse;whiteSpace=wrap;html=1;" vertex="1" parent="1">
          <mxGeometry x="-100" y="240" width="90" height="30" as="geometry" />
        </mxCell>
        <mxCell id="FxGEw2DbVxyJyyO82ozZ-21" value="&lt;font style=&quot;font-size: 14px;&quot;&gt;Vehicle&lt;/font&gt;" style="ellipse;whiteSpace=wrap;html=1;" vertex="1" parent="1">
          <mxGeometry x="-115" y="200" width="90" height="30" as="geometry" />
        </mxCell>
        <mxCell id="FxGEw2DbVxyJyyO82ozZ-22" value="&lt;font style=&quot;font-size: 14px;&quot;&gt;Company&lt;/font&gt;" style="ellipse;whiteSpace=wrap;html=1;" vertex="1" parent="1">
          <mxGeometry x="-115" y="130" width="90" height="30" as="geometry" />
        </mxCell>
        <mxCell id="FxGEw2DbVxyJyyO82ozZ-24" value="" style="endArrow=none;html=1;rounded=0;exitX=0.851;exitY=-0.088;exitDx=0;exitDy=0;exitPerimeter=0;entryX=0.5;entryY=1;entryDx=0;entryDy=0;" edge="1" parent="1" source="FxGEw2DbVxyJyyO82ozZ-1" target="FxGEw2DbVxyJyyO82ozZ-9">
          <mxGeometry width="50" height="50" relative="1" as="geometry">
            <mxPoint x="220" y="120" as="sourcePoint" />
            <mxPoint x="270" y="70" as="targetPoint" />
          </mxGeometry>
        </mxCell>
        <mxCell id="FxGEw2DbVxyJyyO82ozZ-25" value="" style="endArrow=none;html=1;rounded=0;exitX=0.5;exitY=0;exitDx=0;exitDy=0;entryX=0.4;entryY=1.033;entryDx=0;entryDy=0;entryPerimeter=0;" edge="1" parent="1" source="FxGEw2DbVxyJyyO82ozZ-1" target="FxGEw2DbVxyJyyO82ozZ-10">
          <mxGeometry width="50" height="50" relative="1" as="geometry">
            <mxPoint x="220" y="120" as="sourcePoint" />
            <mxPoint x="270" y="70" as="targetPoint" />
          </mxGeometry>
        </mxCell>
        <mxCell id="FxGEw2DbVxyJyyO82ozZ-26" value="" style="endArrow=none;html=1;rounded=0;entryX=0.5;entryY=1;entryDx=0;entryDy=0;exitX=0.25;exitY=0;exitDx=0;exitDy=0;" edge="1" parent="1" source="FxGEw2DbVxyJyyO82ozZ-1" target="FxGEw2DbVxyJyyO82ozZ-6">
          <mxGeometry width="50" height="50" relative="1" as="geometry">
            <mxPoint x="220" y="120" as="sourcePoint" />
            <mxPoint x="270" y="70" as="targetPoint" />
          </mxGeometry>
        </mxCell>
        <mxCell id="FxGEw2DbVxyJyyO82ozZ-27" value="" style="endArrow=none;html=1;rounded=0;entryX=0.5;entryY=1;entryDx=0;entryDy=0;exitX=0.164;exitY=0.068;exitDx=0;exitDy=0;exitPerimeter=0;" edge="1" parent="1" source="FxGEw2DbVxyJyyO82ozZ-1" target="FxGEw2DbVxyJyyO82ozZ-4">
          <mxGeometry width="50" height="50" relative="1" as="geometry">
            <mxPoint x="130" y="180" as="sourcePoint" />
            <mxPoint x="87" y="116" as="targetPoint" />
          </mxGeometry>
        </mxCell>
        <mxCell id="FxGEw2DbVxyJyyO82ozZ-28" value="" style="endArrow=none;html=1;rounded=0;exitX=1;exitY=0.5;exitDx=0;exitDy=0;" edge="1" parent="1" source="FxGEw2DbVxyJyyO82ozZ-3">
          <mxGeometry width="50" height="50" relative="1" as="geometry">
            <mxPoint x="220" y="120" as="sourcePoint" />
            <mxPoint x="130" y="180" as="targetPoint" />
          </mxGeometry>
        </mxCell>
        <mxCell id="FxGEw2DbVxyJyyO82ozZ-29" value="" style="endArrow=none;html=1;rounded=0;exitX=0.954;exitY=0.319;exitDx=0;exitDy=0;exitPerimeter=0;entryX=0;entryY=0.5;entryDx=0;entryDy=0;" edge="1" parent="1" source="FxGEw2DbVxyJyyO82ozZ-2" target="FxGEw2DbVxyJyyO82ozZ-1">
          <mxGeometry width="50" height="50" relative="1" as="geometry">
            <mxPoint x="220" y="120" as="sourcePoint" />
            <mxPoint x="270" y="70" as="targetPoint" />
          </mxGeometry>
        </mxCell>
        <mxCell id="FxGEw2DbVxyJyyO82ozZ-30" value="" style="endArrow=none;html=1;rounded=0;exitX=0.803;exitY=0.23;exitDx=0;exitDy=0;exitPerimeter=0;" edge="1" parent="1" source="FxGEw2DbVxyJyyO82ozZ-12">
          <mxGeometry width="50" height="50" relative="1" as="geometry">
            <mxPoint x="220" y="120" as="sourcePoint" />
            <mxPoint x="130" y="180" as="targetPoint" />
          </mxGeometry>
        </mxCell>
        <mxCell id="FxGEw2DbVxyJyyO82ozZ-31" value="" style="endArrow=none;html=1;rounded=0;exitX=1;exitY=0;exitDx=0;exitDy=0;entryX=0.155;entryY=0.955;entryDx=0;entryDy=0;entryPerimeter=0;" edge="1" parent="1" source="FxGEw2DbVxyJyyO82ozZ-11" target="FxGEw2DbVxyJyyO82ozZ-1">
          <mxGeometry width="50" height="50" relative="1" as="geometry">
            <mxPoint x="80" y="270" as="sourcePoint" />
            <mxPoint x="150" y="213" as="targetPoint" />
          </mxGeometry>
        </mxCell>
        <mxCell id="FxGEw2DbVxyJyyO82ozZ-32" value="" style="endArrow=none;html=1;rounded=0;entryX=0.164;entryY=1.008;entryDx=0;entryDy=0;entryPerimeter=0;" edge="1" parent="1" source="FxGEw2DbVxyJyyO82ozZ-8" target="FxGEw2DbVxyJyyO82ozZ-1">
          <mxGeometry width="50" height="50" relative="1" as="geometry">
            <mxPoint x="80" y="267" as="sourcePoint" />
            <mxPoint x="150" y="210" as="targetPoint" />
          </mxGeometry>
        </mxCell>
        <mxCell id="FxGEw2DbVxyJyyO82ozZ-33" value="" style="endArrow=none;html=1;rounded=0;exitX=0.25;exitY=0.333;exitDx=0;exitDy=0;exitPerimeter=0;entryX=0.155;entryY=1.025;entryDx=0;entryDy=0;entryPerimeter=0;" edge="1" parent="1" source="FxGEw2DbVxyJyyO82ozZ-5" target="FxGEw2DbVxyJyyO82ozZ-1">
          <mxGeometry width="50" height="50" relative="1" as="geometry">
            <mxPoint x="90" y="277" as="sourcePoint" />
            <mxPoint x="160" y="220" as="targetPoint" />
          </mxGeometry>
        </mxCell>
        <mxCell id="FxGEw2DbVxyJyyO82ozZ-34" value="" style="endArrow=none;html=1;rounded=0;" edge="1" parent="1" source="FxGEw2DbVxyJyyO82ozZ-7">
          <mxGeometry width="50" height="50" relative="1" as="geometry">
            <mxPoint x="180" y="283.5" as="sourcePoint" />
            <mxPoint x="150" y="202" as="targetPoint" />
          </mxGeometry>
        </mxCell>
        <mxCell id="FxGEw2DbVxyJyyO82ozZ-35" style="edgeStyle=orthogonalEdgeStyle;rounded=0;orthogonalLoop=1;jettySize=auto;html=1;exitX=0.5;exitY=1;exitDx=0;exitDy=0;" edge="1" parent="1" source="FxGEw2DbVxyJyyO82ozZ-7" target="FxGEw2DbVxyJyyO82ozZ-7">
          <mxGeometry relative="1" as="geometry" />
        </mxCell>
        <mxCell id="FxGEw2DbVxyJyyO82ozZ-36" value="" style="endArrow=none;html=1;rounded=0;entryX=0.5;entryY=1;entryDx=0;entryDy=0;exitX=0.112;exitY=0.016;exitDx=0;exitDy=0;exitPerimeter=0;" edge="1" parent="1" source="FxGEw2DbVxyJyyO82ozZ-1" target="FxGEw2DbVxyJyyO82ozZ-15">
          <mxGeometry width="50" height="50" relative="1" as="geometry">
            <mxPoint x="180" y="190" as="sourcePoint" />
            <mxPoint x="230" y="140" as="targetPoint" />
          </mxGeometry>
        </mxCell>
        <mxCell id="FxGEw2DbVxyJyyO82ozZ-37" value="" style="endArrow=none;html=1;rounded=0;entryX=0.713;entryY=0.886;entryDx=0;entryDy=0;exitX=0;exitY=0.25;exitDx=0;exitDy=0;entryPerimeter=0;" edge="1" parent="1" source="FxGEw2DbVxyJyyO82ozZ-1" target="FxGEw2DbVxyJyyO82ozZ-17">
          <mxGeometry width="50" height="50" relative="1" as="geometry">
            <mxPoint x="149" y="171" as="sourcePoint" />
            <mxPoint x="145" y="30" as="targetPoint" />
          </mxGeometry>
        </mxCell>
        <mxCell id="FxGEw2DbVxyJyyO82ozZ-38" value="" style="endArrow=none;html=1;rounded=0;entryX=0.732;entryY=0.926;entryDx=0;entryDy=0;exitX=0;exitY=0.5;exitDx=0;exitDy=0;entryPerimeter=0;" edge="1" parent="1" source="FxGEw2DbVxyJyyO82ozZ-1" target="FxGEw2DbVxyJyyO82ozZ-16">
          <mxGeometry width="50" height="50" relative="1" as="geometry">
            <mxPoint x="159" y="181" as="sourcePoint" />
            <mxPoint x="155" y="40" as="targetPoint" />
          </mxGeometry>
        </mxCell>
        <mxCell id="FxGEw2DbVxyJyyO82ozZ-39" value="" style="endArrow=none;html=1;rounded=0;entryX=1;entryY=0.5;entryDx=0;entryDy=0;exitX=0;exitY=0.5;exitDx=0;exitDy=0;" edge="1" parent="1" source="FxGEw2DbVxyJyyO82ozZ-1" target="FxGEw2DbVxyJyyO82ozZ-14">
          <mxGeometry width="50" height="50" relative="1" as="geometry">
            <mxPoint x="169" y="191" as="sourcePoint" />
            <mxPoint x="165" y="50" as="targetPoint" />
          </mxGeometry>
        </mxCell>
        <mxCell id="FxGEw2DbVxyJyyO82ozZ-40" value="" style="endArrow=none;html=1;rounded=0;entryX=1;entryY=0.5;entryDx=0;entryDy=0;" edge="1" parent="1" target="FxGEw2DbVxyJyyO82ozZ-13">
          <mxGeometry width="50" height="50" relative="1" as="geometry">
            <mxPoint x="130" y="180" as="sourcePoint" />
            <mxPoint x="175" y="60" as="targetPoint" />
          </mxGeometry>
        </mxCell>
        <mxCell id="FxGEw2DbVxyJyyO82ozZ-41" value="" style="endArrow=none;html=1;rounded=0;entryX=1.005;entryY=0.72;entryDx=0;entryDy=0;entryPerimeter=0;" edge="1" parent="1" target="FxGEw2DbVxyJyyO82ozZ-22">
          <mxGeometry width="50" height="50" relative="1" as="geometry">
            <mxPoint x="130" y="180" as="sourcePoint" />
            <mxPoint x="185" y="70" as="targetPoint" />
          </mxGeometry>
        </mxCell>
        <mxCell id="FxGEw2DbVxyJyyO82ozZ-42" value="" style="endArrow=none;html=1;rounded=0;entryX=0.943;entryY=0.242;entryDx=0;entryDy=0;exitX=0;exitY=0.5;exitDx=0;exitDy=0;entryPerimeter=0;" edge="1" parent="1" source="FxGEw2DbVxyJyyO82ozZ-1" target="FxGEw2DbVxyJyyO82ozZ-21">
          <mxGeometry width="50" height="50" relative="1" as="geometry">
            <mxPoint x="199" y="221" as="sourcePoint" />
            <mxPoint x="195" y="80" as="targetPoint" />
          </mxGeometry>
        </mxCell>
        <mxCell id="FxGEw2DbVxyJyyO82ozZ-43" value="" style="endArrow=none;html=1;rounded=0;entryX=0.754;entryY=0.068;entryDx=0;entryDy=0;exitX=0;exitY=0.5;exitDx=0;exitDy=0;entryPerimeter=0;" edge="1" parent="1" source="FxGEw2DbVxyJyyO82ozZ-1" target="FxGEw2DbVxyJyyO82ozZ-20">
          <mxGeometry width="50" height="50" relative="1" as="geometry">
            <mxPoint x="209" y="231" as="sourcePoint" />
            <mxPoint x="205" y="90" as="targetPoint" />
          </mxGeometry>
        </mxCell>
        <mxCell id="FxGEw2DbVxyJyyO82ozZ-44" value="" style="endArrow=none;html=1;rounded=0;entryX=0.722;entryY=0;entryDx=0;entryDy=0;exitX=0;exitY=0.5;exitDx=0;exitDy=0;entryPerimeter=0;" edge="1" parent="1" source="FxGEw2DbVxyJyyO82ozZ-1" target="FxGEw2DbVxyJyyO82ozZ-19">
          <mxGeometry width="50" height="50" relative="1" as="geometry">
            <mxPoint x="219" y="241" as="sourcePoint" />
            <mxPoint x="215" y="100" as="targetPoint" />
          </mxGeometry>
        </mxCell>
        <mxCell id="FxGEw2DbVxyJyyO82ozZ-45" value="" style="endArrow=none;html=1;rounded=0;entryX=0.616;entryY=0.013;entryDx=0;entryDy=0;entryPerimeter=0;" edge="1" parent="1" target="FxGEw2DbVxyJyyO82ozZ-18">
          <mxGeometry width="50" height="50" relative="1" as="geometry">
            <mxPoint x="130" y="180" as="sourcePoint" />
            <mxPoint x="225" y="110" as="targetPoint" />
          </mxGeometry>
        </mxCell>
        <mxCell id="FxGEw2DbVxyJyyO82ozZ-46" value="&lt;font style=&quot;font-size: 16px;&quot;&gt;Product&lt;/font&gt;" style="html=1;whiteSpace=wrap;" vertex="1" parent="1">
          <mxGeometry x="820" y="445" width="80" height="40" as="geometry" />
        </mxCell>
        <mxCell id="FxGEw2DbVxyJyyO82ozZ-47" value="&lt;font style=&quot;font-size: 14px;&quot;&gt;ProductName&lt;/font&gt;" style="ellipse;whiteSpace=wrap;html=1;" vertex="1" parent="1">
          <mxGeometry x="740" y="295" width="90" height="30" as="geometry" />
        </mxCell>
        <mxCell id="FxGEw2DbVxyJyyO82ozZ-48" value="&lt;font style=&quot;font-size: 14px;&quot;&gt;Weight Unit&lt;/font&gt;" style="ellipse;whiteSpace=wrap;html=1;" vertex="1" parent="1">
          <mxGeometry x="910" y="295" width="90" height="30" as="geometry" />
        </mxCell>
        <mxCell id="FxGEw2DbVxyJyyO82ozZ-49" value="&lt;font style=&quot;font-size: 14px;&quot;&gt;Color&lt;/font&gt;" style="ellipse;whiteSpace=wrap;html=1;" vertex="1" parent="1">
          <mxGeometry x="870" y="325" width="60" height="30" as="geometry" />
        </mxCell>
        <mxCell id="FxGEw2DbVxyJyyO82ozZ-50" value="&lt;font style=&quot;font-size: 14px;&quot;&gt;&lt;u&gt;ProductKey&lt;/u&gt;&lt;/font&gt;" style="ellipse;whiteSpace=wrap;html=1;" vertex="1" parent="1">
          <mxGeometry x="685" y="380" width="90" height="30" as="geometry" />
        </mxCell>
        <mxCell id="FxGEw2DbVxyJyyO82ozZ-51" value="&lt;font style=&quot;font-size: 14px;&quot;&gt;ProductCode&lt;/font&gt;" style="ellipse;whiteSpace=wrap;html=1;" vertex="1" parent="1">
          <mxGeometry x="710" y="335" width="90" height="30" as="geometry" />
        </mxCell>
        <mxCell id="FxGEw2DbVxyJyyO82ozZ-52" value="&lt;font style=&quot;font-size: 14px;&quot;&gt;Brand&lt;/font&gt;" style="ellipse;whiteSpace=wrap;html=1;" vertex="1" parent="1">
          <mxGeometry x="840" y="295" width="60" height="30" as="geometry" />
        </mxCell>
        <mxCell id="FxGEw2DbVxyJyyO82ozZ-53" value="&lt;font style=&quot;font-size: 14px;&quot;&gt;Manufacturer&lt;/font&gt;" style="ellipse;whiteSpace=wrap;html=1;" vertex="1" parent="1">
          <mxGeometry x="800" y="265" width="90" height="30" as="geometry" />
        </mxCell>
        <mxCell id="FxGEw2DbVxyJyyO82ozZ-54" value="&lt;font style=&quot;font-size: 14px;&quot;&gt;Weight&lt;/font&gt;" style="ellipse;whiteSpace=wrap;html=1;" vertex="1" parent="1">
          <mxGeometry x="950" y="335" width="90" height="30" as="geometry" />
        </mxCell>
        <mxCell id="FxGEw2DbVxyJyyO82ozZ-55" value="&lt;font style=&quot;font-size: 14px;&quot;&gt;SubCategoryCode&lt;/font&gt;" style="ellipse;whiteSpace=wrap;html=1;" vertex="1" parent="1">
          <mxGeometry x="950" y="405" width="150" height="30" as="geometry" />
        </mxCell>
        <mxCell id="FxGEw2DbVxyJyyO82ozZ-56" value="&lt;font style=&quot;font-size: 14px;&quot;&gt;UnitPrice&lt;/font&gt;" style="ellipse;whiteSpace=wrap;html=1;" vertex="1" parent="1">
          <mxGeometry x="940" y="455" width="90" height="30" as="geometry" />
        </mxCell>
        <mxCell id="FxGEw2DbVxyJyyO82ozZ-57" value="&lt;font style=&quot;font-size: 14px;&quot;&gt;UnitCost&lt;/font&gt;" style="ellipse;whiteSpace=wrap;html=1;" vertex="1" parent="1">
          <mxGeometry x="960" y="375" width="90" height="30" as="geometry" />
        </mxCell>
        <mxCell id="FxGEw2DbVxyJyyO82ozZ-59" value="" style="endArrow=none;html=1;rounded=0;entryX=1;entryY=1;entryDx=0;entryDy=0;exitX=0;exitY=0;exitDx=0;exitDy=0;" edge="1" parent="1" source="FxGEw2DbVxyJyyO82ozZ-46">
          <mxGeometry width="50" height="50" relative="1" as="geometry">
            <mxPoint x="750" y="485" as="sourcePoint" />
            <mxPoint x="756.8198051534109" y="400.60660171780364" as="targetPoint" />
          </mxGeometry>
        </mxCell>
        <mxCell id="FxGEw2DbVxyJyyO82ozZ-60" value="" style="endArrow=none;html=1;rounded=0;entryX=0.766;entryY=0.906;entryDx=0;entryDy=0;entryPerimeter=0;exitX=0;exitY=0;exitDx=0;exitDy=0;" edge="1" parent="1" source="FxGEw2DbVxyJyyO82ozZ-46" target="FxGEw2DbVxyJyyO82ozZ-51">
          <mxGeometry width="50" height="50" relative="1" as="geometry">
            <mxPoint x="750" y="485" as="sourcePoint" />
            <mxPoint x="800" y="435" as="targetPoint" />
          </mxGeometry>
        </mxCell>
        <mxCell id="FxGEw2DbVxyJyyO82ozZ-61" value="" style="endArrow=none;html=1;rounded=0;entryX=0.597;entryY=0.978;entryDx=0;entryDy=0;entryPerimeter=0;exitX=0;exitY=0;exitDx=0;exitDy=0;" edge="1" parent="1" source="FxGEw2DbVxyJyyO82ozZ-46" target="FxGEw2DbVxyJyyO82ozZ-47">
          <mxGeometry width="50" height="50" relative="1" as="geometry">
            <mxPoint x="750" y="485" as="sourcePoint" />
            <mxPoint x="800" y="435" as="targetPoint" />
          </mxGeometry>
        </mxCell>
        <mxCell id="FxGEw2DbVxyJyyO82ozZ-62" value="" style="endArrow=none;html=1;rounded=0;entryX=0.422;entryY=0.958;entryDx=0;entryDy=0;entryPerimeter=0;" edge="1" parent="1" target="FxGEw2DbVxyJyyO82ozZ-53">
          <mxGeometry width="50" height="50" relative="1" as="geometry">
            <mxPoint x="820" y="443" as="sourcePoint" />
            <mxPoint x="800" y="435" as="targetPoint" />
          </mxGeometry>
        </mxCell>
        <mxCell id="FxGEw2DbVxyJyyO82ozZ-63" value="" style="endArrow=none;html=1;rounded=0;entryX=0.261;entryY=1.001;entryDx=0;entryDy=0;entryPerimeter=0;exitX=0.25;exitY=0;exitDx=0;exitDy=0;" edge="1" parent="1" source="FxGEw2DbVxyJyyO82ozZ-46" target="FxGEw2DbVxyJyyO82ozZ-52">
          <mxGeometry width="50" height="50" relative="1" as="geometry">
            <mxPoint x="750" y="485" as="sourcePoint" />
            <mxPoint x="800" y="435" as="targetPoint" />
          </mxGeometry>
        </mxCell>
        <mxCell id="FxGEw2DbVxyJyyO82ozZ-64" value="" style="endArrow=none;html=1;rounded=0;entryX=0.276;entryY=1.065;entryDx=0;entryDy=0;entryPerimeter=0;" edge="1" parent="1" target="FxGEw2DbVxyJyyO82ozZ-49">
          <mxGeometry width="50" height="50" relative="1" as="geometry">
            <mxPoint x="870" y="435" as="sourcePoint" />
            <mxPoint x="800" y="435" as="targetPoint" />
            <Array as="points">
              <mxPoint x="870" y="445" />
            </Array>
          </mxGeometry>
        </mxCell>
        <mxCell id="FxGEw2DbVxyJyyO82ozZ-65" value="&lt;font style=&quot;font-size: 14px;&quot;&gt;Category&lt;/font&gt;" style="ellipse;whiteSpace=wrap;html=1;" vertex="1" parent="1">
          <mxGeometry x="655" y="450" width="90" height="30" as="geometry" />
        </mxCell>
        <mxCell id="FxGEw2DbVxyJyyO82ozZ-66" value="&lt;font style=&quot;font-size: 14px;&quot;&gt;SubCategory&lt;/font&gt;" style="ellipse;whiteSpace=wrap;html=1;" vertex="1" parent="1">
          <mxGeometry x="970" y="495" width="90" height="30" as="geometry" />
        </mxCell>
        <mxCell id="FxGEw2DbVxyJyyO82ozZ-67" value="" style="endArrow=none;html=1;rounded=0;entryX=1;entryY=0.5;entryDx=0;entryDy=0;exitX=0;exitY=0;exitDx=0;exitDy=0;" edge="1" parent="1" source="FxGEw2DbVxyJyyO82ozZ-46">
          <mxGeometry width="50" height="50" relative="1" as="geometry">
            <mxPoint x="750" y="485" as="sourcePoint" />
            <mxPoint x="750" y="430.0000000000002" as="targetPoint" />
          </mxGeometry>
        </mxCell>
        <mxCell id="FxGEw2DbVxyJyyO82ozZ-68" value="" style="endArrow=none;html=1;rounded=0;entryX=0.843;entryY=-0.036;entryDx=0;entryDy=0;exitX=0.384;exitY=0.894;exitDx=0;exitDy=0;exitPerimeter=0;entryPerimeter=0;" edge="1" parent="1" source="FxGEw2DbVxyJyyO82ozZ-48" target="FxGEw2DbVxyJyyO82ozZ-46">
          <mxGeometry width="50" height="50" relative="1" as="geometry">
            <mxPoint x="830" y="455" as="sourcePoint" />
            <mxPoint x="760" y="440" as="targetPoint" />
          </mxGeometry>
        </mxCell>
        <mxCell id="FxGEw2DbVxyJyyO82ozZ-69" value="" style="endArrow=none;html=1;rounded=0;entryX=1;entryY=0.5;entryDx=0;entryDy=0;exitX=0;exitY=0.5;exitDx=0;exitDy=0;" edge="1" parent="1" source="FxGEw2DbVxyJyyO82ozZ-57" target="FxGEw2DbVxyJyyO82ozZ-46">
          <mxGeometry width="50" height="50" relative="1" as="geometry">
            <mxPoint x="840" y="465" as="sourcePoint" />
            <mxPoint x="770" y="450" as="targetPoint" />
          </mxGeometry>
        </mxCell>
        <mxCell id="FxGEw2DbVxyJyyO82ozZ-70" value="" style="endArrow=none;html=1;rounded=0;entryX=1;entryY=0.5;entryDx=0;entryDy=0;exitX=0;exitY=0.5;exitDx=0;exitDy=0;" edge="1" parent="1" source="FxGEw2DbVxyJyyO82ozZ-54" target="FxGEw2DbVxyJyyO82ozZ-46">
          <mxGeometry width="50" height="50" relative="1" as="geometry">
            <mxPoint x="850" y="475" as="sourcePoint" />
            <mxPoint x="780" y="460" as="targetPoint" />
          </mxGeometry>
        </mxCell>
        <mxCell id="FxGEw2DbVxyJyyO82ozZ-72" value="" style="endArrow=none;html=1;rounded=0;entryX=1;entryY=0.5;entryDx=0;entryDy=0;exitX=0.031;exitY=0.268;exitDx=0;exitDy=0;exitPerimeter=0;" edge="1" parent="1" target="FxGEw2DbVxyJyyO82ozZ-46">
          <mxGeometry width="50" height="50" relative="1" as="geometry">
            <mxPoint x="954.6499999999996" y="423.0400000000002" as="sourcePoint" />
            <mxPoint x="790" y="470" as="targetPoint" />
          </mxGeometry>
        </mxCell>
        <mxCell id="FxGEw2DbVxyJyyO82ozZ-73" value="" style="endArrow=none;html=1;rounded=0;entryX=1;entryY=0.5;entryDx=0;entryDy=0;exitX=0;exitY=0;exitDx=0;exitDy=0;" edge="1" parent="1" source="FxGEw2DbVxyJyyO82ozZ-56" target="FxGEw2DbVxyJyyO82ozZ-46">
          <mxGeometry width="50" height="50" relative="1" as="geometry">
            <mxPoint x="870" y="495" as="sourcePoint" />
            <mxPoint x="800" y="480" as="targetPoint" />
          </mxGeometry>
        </mxCell>
        <mxCell id="FxGEw2DbVxyJyyO82ozZ-75" value="" style="endArrow=none;html=1;rounded=0;entryX=1;entryY=0.5;entryDx=0;entryDy=0;exitX=0.052;exitY=0.138;exitDx=0;exitDy=0;exitPerimeter=0;" edge="1" parent="1" source="FxGEw2DbVxyJyyO82ozZ-66" target="FxGEw2DbVxyJyyO82ozZ-46">
          <mxGeometry width="50" height="50" relative="1" as="geometry">
            <mxPoint x="880" y="505" as="sourcePoint" />
            <mxPoint x="810" y="490" as="targetPoint" />
          </mxGeometry>
        </mxCell>
        <mxCell id="FxGEw2DbVxyJyyO82ozZ-76" value="&lt;font style=&quot;font-size: 14px;&quot;&gt;CategoryCode&lt;/font&gt;" style="ellipse;whiteSpace=wrap;html=1;" vertex="1" parent="1">
          <mxGeometry x="665" y="415" width="90" height="30" as="geometry" />
        </mxCell>
        <mxCell id="FxGEw2DbVxyJyyO82ozZ-77" value="" style="endArrow=none;html=1;rounded=0;" edge="1" parent="1">
          <mxGeometry width="50" height="50" relative="1" as="geometry">
            <mxPoint x="820" y="445" as="sourcePoint" />
            <mxPoint x="735.5286491291968" y="458.4814060841154" as="targetPoint" />
          </mxGeometry>
        </mxCell>
        <mxCell id="FxGEw2DbVxyJyyO82ozZ-81" value="&lt;font style=&quot;font-size: 16px;&quot;&gt;Store&lt;/font&gt;" style="html=1;whiteSpace=wrap;" vertex="1" parent="1">
          <mxGeometry x="500" y="130" width="80" height="40" as="geometry" />
        </mxCell>
        <mxCell id="FxGEw2DbVxyJyyO82ozZ-82" value="&lt;font style=&quot;font-size: 16px;&quot;&gt;Orders&lt;/font&gt;" style="html=1;whiteSpace=wrap;" vertex="1" parent="1">
          <mxGeometry x="360" y="425" width="80" height="40" as="geometry" />
        </mxCell>
        <mxCell id="FxGEw2DbVxyJyyO82ozZ-83" value="&lt;font style=&quot;font-size: 14px;&quot;&gt;&lt;u&gt;StoreKey&lt;/u&gt;&lt;/font&gt;" style="ellipse;whiteSpace=wrap;html=1;" vertex="1" parent="1">
          <mxGeometry x="465" y="50" width="90" height="30" as="geometry" />
        </mxCell>
        <mxCell id="FxGEw2DbVxyJyyO82ozZ-84" value="&lt;font style=&quot;font-size: 14px;&quot;&gt;StoreCode&lt;/font&gt;" style="ellipse;whiteSpace=wrap;html=1;" vertex="1" parent="1">
          <mxGeometry x="525" y="20" width="90" height="30" as="geometry" />
        </mxCell>
        <mxCell id="FxGEw2DbVxyJyyO82ozZ-85" value="&lt;font style=&quot;font-size: 14px;&quot;&gt;Name&lt;/font&gt;" style="ellipse;whiteSpace=wrap;html=1;" vertex="1" parent="1">
          <mxGeometry x="675" y="140" width="50" height="30" as="geometry" />
        </mxCell>
        <mxCell id="FxGEw2DbVxyJyyO82ozZ-86" value="&lt;font style=&quot;font-size: 14px;&quot;&gt;Country&lt;/font&gt;" style="ellipse;whiteSpace=wrap;html=1;" vertex="1" parent="1">
          <mxGeometry x="595" y="50" width="70" height="30" as="geometry" />
        </mxCell>
        <mxCell id="FxGEw2DbVxyJyyO82ozZ-87" value="&lt;font style=&quot;font-size: 14px;&quot;&gt;State&lt;/font&gt;" style="ellipse;whiteSpace=wrap;html=1;" vertex="1" parent="1">
          <mxGeometry x="655" y="90" width="60" height="30" as="geometry" />
        </mxCell>
        <mxCell id="FxGEw2DbVxyJyyO82ozZ-88" value="&lt;font style=&quot;font-size: 14px;&quot;&gt;OpenDate&lt;/font&gt;" style="ellipse;whiteSpace=wrap;html=1;" vertex="1" parent="1">
          <mxGeometry x="705" y="110" width="90" height="30" as="geometry" />
        </mxCell>
        <mxCell id="FxGEw2DbVxyJyyO82ozZ-89" value="&lt;font style=&quot;font-size: 14px;&quot;&gt;Square Meters&lt;/font&gt;" style="ellipse;whiteSpace=wrap;html=1;" vertex="1" parent="1">
          <mxGeometry x="665" y="60" width="120" height="30" as="geometry" />
        </mxCell>
        <mxCell id="FxGEw2DbVxyJyyO82ozZ-90" value="&lt;font style=&quot;font-size: 14px;&quot;&gt;CloseDate&lt;/font&gt;" style="ellipse;whiteSpace=wrap;html=1;" vertex="1" parent="1">
          <mxGeometry x="655" y="180" width="90" height="30" as="geometry" />
        </mxCell>
        <mxCell id="FxGEw2DbVxyJyyO82ozZ-91" value="&lt;font style=&quot;font-size: 14px;&quot;&gt;Status&lt;/font&gt;" style="ellipse;whiteSpace=wrap;html=1;" vertex="1" parent="1">
          <mxGeometry x="600" y="200" width="70" height="30" as="geometry" />
        </mxCell>
        <mxCell id="FxGEw2DbVxyJyyO82ozZ-92" value="" style="endArrow=none;html=1;rounded=0;exitX=0.5;exitY=1;exitDx=0;exitDy=0;" edge="1" parent="1" source="FxGEw2DbVxyJyyO82ozZ-83" target="FxGEw2DbVxyJyyO82ozZ-81">
          <mxGeometry width="50" height="50" relative="1" as="geometry">
            <mxPoint x="495" y="90" as="sourcePoint" />
            <mxPoint x="545" y="40" as="targetPoint" />
          </mxGeometry>
        </mxCell>
        <mxCell id="FxGEw2DbVxyJyyO82ozZ-93" value="" style="endArrow=none;html=1;rounded=0;exitX=0.432;exitY=0.97;exitDx=0;exitDy=0;exitPerimeter=0;entryX=0.75;entryY=0;entryDx=0;entryDy=0;" edge="1" parent="1" source="FxGEw2DbVxyJyyO82ozZ-84" target="FxGEw2DbVxyJyyO82ozZ-81">
          <mxGeometry width="50" height="50" relative="1" as="geometry">
            <mxPoint x="520" y="90" as="sourcePoint" />
            <mxPoint x="541" y="140" as="targetPoint" />
          </mxGeometry>
        </mxCell>
        <mxCell id="FxGEw2DbVxyJyyO82ozZ-94" value="" style="endArrow=none;html=1;rounded=0;exitX=0;exitY=1;exitDx=0;exitDy=0;entryX=0.75;entryY=0;entryDx=0;entryDy=0;" edge="1" parent="1" source="FxGEw2DbVxyJyyO82ozZ-86" target="FxGEw2DbVxyJyyO82ozZ-81">
          <mxGeometry width="50" height="50" relative="1" as="geometry">
            <mxPoint x="530" y="100" as="sourcePoint" />
            <mxPoint x="551" y="150" as="targetPoint" />
          </mxGeometry>
        </mxCell>
        <mxCell id="FxGEw2DbVxyJyyO82ozZ-95" value="" style="endArrow=none;html=1;rounded=0;exitX=0;exitY=0.5;exitDx=0;exitDy=0;" edge="1" parent="1" source="FxGEw2DbVxyJyyO82ozZ-89">
          <mxGeometry width="50" height="50" relative="1" as="geometry">
            <mxPoint x="540" y="110" as="sourcePoint" />
            <mxPoint x="561" y="130" as="targetPoint" />
          </mxGeometry>
        </mxCell>
        <mxCell id="FxGEw2DbVxyJyyO82ozZ-96" value="" style="endArrow=none;html=1;rounded=0;exitX=0;exitY=1;exitDx=0;exitDy=0;entryX=1;entryY=0.25;entryDx=0;entryDy=0;" edge="1" parent="1" source="FxGEw2DbVxyJyyO82ozZ-87" target="FxGEw2DbVxyJyyO82ozZ-81">
          <mxGeometry width="50" height="50" relative="1" as="geometry">
            <mxPoint x="550" y="120" as="sourcePoint" />
            <mxPoint x="571" y="170" as="targetPoint" />
          </mxGeometry>
        </mxCell>
        <mxCell id="FxGEw2DbVxyJyyO82ozZ-97" value="" style="endArrow=none;html=1;rounded=0;exitX=0.068;exitY=0.362;exitDx=0;exitDy=0;exitPerimeter=0;entryX=1;entryY=0.5;entryDx=0;entryDy=0;" edge="1" parent="1" source="FxGEw2DbVxyJyyO82ozZ-88" target="FxGEw2DbVxyJyyO82ozZ-81">
          <mxGeometry width="50" height="50" relative="1" as="geometry">
            <mxPoint x="560" y="130" as="sourcePoint" />
            <mxPoint x="581" y="180" as="targetPoint" />
          </mxGeometry>
        </mxCell>
        <mxCell id="FxGEw2DbVxyJyyO82ozZ-98" value="" style="endArrow=none;html=1;rounded=0;exitX=0.003;exitY=0.216;exitDx=0;exitDy=0;exitPerimeter=0;entryX=1;entryY=0.5;entryDx=0;entryDy=0;" edge="1" parent="1" source="FxGEw2DbVxyJyyO82ozZ-85" target="FxGEw2DbVxyJyyO82ozZ-81">
          <mxGeometry width="50" height="50" relative="1" as="geometry">
            <mxPoint x="570" y="140" as="sourcePoint" />
            <mxPoint x="591" y="190" as="targetPoint" />
          </mxGeometry>
        </mxCell>
        <mxCell id="FxGEw2DbVxyJyyO82ozZ-99" value="" style="endArrow=none;html=1;rounded=0;exitX=0.5;exitY=1;exitDx=0;exitDy=0;entryX=0;entryY=0;entryDx=0;entryDy=0;" edge="1" parent="1" target="FxGEw2DbVxyJyyO82ozZ-90">
          <mxGeometry width="50" height="50" relative="1" as="geometry">
            <mxPoint x="580" y="150" as="sourcePoint" />
            <mxPoint x="601" y="200" as="targetPoint" />
          </mxGeometry>
        </mxCell>
        <mxCell id="FxGEw2DbVxyJyyO82ozZ-100" value="" style="endArrow=none;html=1;rounded=0;entryX=0.36;entryY=0.071;entryDx=0;entryDy=0;entryPerimeter=0;exitX=1;exitY=0.5;exitDx=0;exitDy=0;" edge="1" parent="1" source="FxGEw2DbVxyJyyO82ozZ-81">
          <mxGeometry width="50" height="50" relative="1" as="geometry">
            <mxPoint x="585" y="150" as="sourcePoint" />
            <mxPoint x="620.1999999999998" y="202.1300000000001" as="targetPoint" />
          </mxGeometry>
        </mxCell>
        <mxCell id="FxGEw2DbVxyJyyO82ozZ-104" value="&lt;font style=&quot;font-size: 14px;&quot;&gt;&lt;u&gt;OrderKey&lt;/u&gt;&lt;/font&gt;" style="ellipse;whiteSpace=wrap;html=1;" vertex="1" parent="1">
          <mxGeometry x="210" y="410" width="90" height="30" as="geometry" />
        </mxCell>
        <mxCell id="FxGEw2DbVxyJyyO82ozZ-105" value="&lt;font style=&quot;font-size: 14px;&quot;&gt;CustomerKey&lt;/font&gt;" style="ellipse;whiteSpace=wrap;html=1;" vertex="1" parent="1">
          <mxGeometry x="210" y="450" width="90" height="30" as="geometry" />
        </mxCell>
        <mxCell id="FxGEw2DbVxyJyyO82ozZ-106" value="" style="endArrow=none;dashed=1;html=1;rounded=0;exitX=0.082;exitY=0.686;exitDx=0;exitDy=0;entryX=0.924;entryY=0.709;entryDx=0;entryDy=0;exitPerimeter=0;entryPerimeter=0;" edge="1" parent="1" source="FxGEw2DbVxyJyyO82ozZ-105" target="FxGEw2DbVxyJyyO82ozZ-105">
          <mxGeometry width="50" height="50" relative="1" as="geometry">
            <mxPoint x="490" y="430" as="sourcePoint" />
            <mxPoint x="540" y="380" as="targetPoint" />
          </mxGeometry>
        </mxCell>
        <mxCell id="FxGEw2DbVxyJyyO82ozZ-107" value="&lt;font style=&quot;font-size: 14px;&quot;&gt;StoreKey&lt;/font&gt;" style="ellipse;whiteSpace=wrap;html=1;" vertex="1" parent="1">
          <mxGeometry x="260" y="490" width="90" height="30" as="geometry" />
        </mxCell>
        <mxCell id="FxGEw2DbVxyJyyO82ozZ-108" value="" style="endArrow=none;dashed=1;html=1;rounded=0;entryX=0.924;entryY=0.709;entryDx=0;entryDy=0;entryPerimeter=0;" edge="1" parent="1">
          <mxGeometry width="50" height="50" relative="1" as="geometry">
            <mxPoint x="276" y="510" as="sourcePoint" />
            <mxPoint x="334" y="510" as="targetPoint" />
          </mxGeometry>
        </mxCell>
        <mxCell id="FxGEw2DbVxyJyyO82ozZ-110" value="&lt;font style=&quot;font-size: 14px;&quot;&gt;OrderDate&lt;/font&gt;" style="ellipse;whiteSpace=wrap;html=1;" vertex="1" parent="1">
          <mxGeometry x="490" y="410" width="90" height="30" as="geometry" />
        </mxCell>
        <mxCell id="FxGEw2DbVxyJyyO82ozZ-111" value="&lt;font style=&quot;font-size: 14px;&quot;&gt;DeliveryDate&lt;/font&gt;" style="ellipse;whiteSpace=wrap;html=1;" vertex="1" parent="1">
          <mxGeometry x="460" y="380" width="90" height="30" as="geometry" />
        </mxCell>
        <mxCell id="FxGEw2DbVxyJyyO82ozZ-112" value="&lt;font style=&quot;font-size: 14px;&quot;&gt;CurrenctCode&lt;/font&gt;" style="ellipse;whiteSpace=wrap;html=1;" vertex="1" parent="1">
          <mxGeometry x="510" y="450" width="100" height="30" as="geometry" />
        </mxCell>
        <mxCell id="FxGEw2DbVxyJyyO82ozZ-113" value="" style="endArrow=none;html=1;rounded=0;entryX=1;entryY=0.5;entryDx=0;entryDy=0;exitX=0;exitY=0.5;exitDx=0;exitDy=0;" edge="1" parent="1" source="FxGEw2DbVxyJyyO82ozZ-82" target="FxGEw2DbVxyJyyO82ozZ-104">
          <mxGeometry width="50" height="50" relative="1" as="geometry">
            <mxPoint x="350" y="440" as="sourcePoint" />
            <mxPoint x="540" y="380" as="targetPoint" />
          </mxGeometry>
        </mxCell>
        <mxCell id="FxGEw2DbVxyJyyO82ozZ-114" value="" style="endArrow=none;html=1;rounded=0;entryX=0.081;entryY=0.349;entryDx=0;entryDy=0;exitX=1;exitY=0.75;exitDx=0;exitDy=0;entryPerimeter=0;" edge="1" parent="1" source="FxGEw2DbVxyJyyO82ozZ-82" target="FxGEw2DbVxyJyyO82ozZ-112">
          <mxGeometry width="50" height="50" relative="1" as="geometry">
            <mxPoint x="360" y="450" as="sourcePoint" />
            <mxPoint x="310" y="435" as="targetPoint" />
          </mxGeometry>
        </mxCell>
        <mxCell id="FxGEw2DbVxyJyyO82ozZ-115" value="" style="endArrow=none;html=1;rounded=0;entryX=1;entryY=0;entryDx=0;entryDy=0;exitX=0;exitY=0.75;exitDx=0;exitDy=0;" edge="1" parent="1" source="FxGEw2DbVxyJyyO82ozZ-82" target="FxGEw2DbVxyJyyO82ozZ-105">
          <mxGeometry width="50" height="50" relative="1" as="geometry">
            <mxPoint x="380" y="465" as="sourcePoint" />
            <mxPoint x="320" y="445" as="targetPoint" />
          </mxGeometry>
        </mxCell>
        <mxCell id="FxGEw2DbVxyJyyO82ozZ-116" value="" style="endArrow=none;html=1;rounded=0;entryX=0.5;entryY=0;entryDx=0;entryDy=0;exitX=0.25;exitY=1;exitDx=0;exitDy=0;" edge="1" parent="1" source="FxGEw2DbVxyJyyO82ozZ-82" target="FxGEw2DbVxyJyyO82ozZ-107">
          <mxGeometry width="50" height="50" relative="1" as="geometry">
            <mxPoint x="390" y="475" as="sourcePoint" />
            <mxPoint x="330" y="455" as="targetPoint" />
          </mxGeometry>
        </mxCell>
        <mxCell id="FxGEw2DbVxyJyyO82ozZ-117" value="" style="endArrow=none;html=1;rounded=0;exitX=1;exitY=0.5;exitDx=0;exitDy=0;" edge="1" parent="1" source="FxGEw2DbVxyJyyO82ozZ-82" target="FxGEw2DbVxyJyyO82ozZ-110">
          <mxGeometry width="50" height="50" relative="1" as="geometry">
            <mxPoint x="390" y="475" as="sourcePoint" />
            <mxPoint x="385" y="520" as="targetPoint" />
          </mxGeometry>
        </mxCell>
        <mxCell id="FxGEw2DbVxyJyyO82ozZ-118" value="" style="endArrow=none;html=1;rounded=0;entryX=0;entryY=0.5;entryDx=0;entryDy=0;exitX=0.915;exitY=0.07;exitDx=0;exitDy=0;exitPerimeter=0;" edge="1" parent="1" source="FxGEw2DbVxyJyyO82ozZ-82" target="FxGEw2DbVxyJyyO82ozZ-111">
          <mxGeometry width="50" height="50" relative="1" as="geometry">
            <mxPoint x="400" y="485" as="sourcePoint" />
            <mxPoint x="395" y="530" as="targetPoint" />
          </mxGeometry>
        </mxCell>
        <mxCell id="FxGEw2DbVxyJyyO82ozZ-119" value="&lt;font style=&quot;font-size: 14px;&quot;&gt;has&lt;/font&gt;" style="rhombus;whiteSpace=wrap;html=1;" vertex="1" parent="1">
          <mxGeometry x="335" y="260" width="80" height="50" as="geometry" />
        </mxCell>
        <mxCell id="FxGEw2DbVxyJyyO82ozZ-120" value="" style="endArrow=none;html=1;rounded=0;entryX=1;entryY=0.75;entryDx=0;entryDy=0;exitX=0;exitY=0.5;exitDx=0;exitDy=0;" edge="1" parent="1" source="FxGEw2DbVxyJyyO82ozZ-119" target="FxGEw2DbVxyJyyO82ozZ-1">
          <mxGeometry width="50" height="50" relative="1" as="geometry">
            <mxPoint x="490" y="430" as="sourcePoint" />
            <mxPoint x="540" y="380" as="targetPoint" />
          </mxGeometry>
        </mxCell>
        <mxCell id="FxGEw2DbVxyJyyO82ozZ-121" value="" style="endArrow=none;html=1;rounded=0;entryX=0.5;entryY=1;entryDx=0;entryDy=0;exitX=0.75;exitY=0;exitDx=0;exitDy=0;" edge="1" parent="1" source="FxGEw2DbVxyJyyO82ozZ-82" target="FxGEw2DbVxyJyyO82ozZ-119">
          <mxGeometry width="50" height="50" relative="1" as="geometry">
            <mxPoint x="520" y="430" as="sourcePoint" />
            <mxPoint x="570" y="380" as="targetPoint" />
          </mxGeometry>
        </mxCell>
        <mxCell id="FxGEw2DbVxyJyyO82ozZ-122" value="" style="endArrow=none;html=1;rounded=0;entryX=1;entryY=0.5;entryDx=0;entryDy=0;exitX=0;exitY=0.75;exitDx=0;exitDy=0;" edge="1" parent="1" source="FxGEw2DbVxyJyyO82ozZ-81" target="FxGEw2DbVxyJyyO82ozZ-119">
          <mxGeometry width="50" height="50" relative="1" as="geometry">
            <mxPoint x="520" y="430" as="sourcePoint" />
            <mxPoint x="570" y="380" as="targetPoint" />
          </mxGeometry>
        </mxCell>
        <mxCell id="FxGEw2DbVxyJyyO82ozZ-125" value="&lt;font style=&quot;font-size: 14px;&quot;&gt;OrderKey&lt;/font&gt;" style="ellipse;whiteSpace=wrap;html=1;" vertex="1" parent="1">
          <mxGeometry x="455" y="650" width="100" height="30" as="geometry" />
        </mxCell>
        <mxCell id="FxGEw2DbVxyJyyO82ozZ-126" value="" style="endArrow=none;dashed=1;html=1;rounded=0;entryX=0.924;entryY=0.709;entryDx=0;entryDy=0;entryPerimeter=0;" edge="1" parent="1">
          <mxGeometry width="50" height="50" relative="1" as="geometry">
            <mxPoint x="471" y="670" as="sourcePoint" />
            <mxPoint x="539" y="670" as="targetPoint" />
          </mxGeometry>
        </mxCell>
        <mxCell id="FxGEw2DbVxyJyyO82ozZ-127" value="&lt;font style=&quot;font-size: 14px;&quot;&gt;LineNumber&lt;/font&gt;" style="ellipse;whiteSpace=wrap;html=1;" vertex="1" parent="1">
          <mxGeometry x="455" y="690" width="100" height="30" as="geometry" />
        </mxCell>
        <mxCell id="FxGEw2DbVxyJyyO82ozZ-128" value="&lt;font style=&quot;font-size: 14px;&quot;&gt;ProductKey&lt;/font&gt;" style="ellipse;whiteSpace=wrap;html=1;" vertex="1" parent="1">
          <mxGeometry x="485" y="730" width="100" height="30" as="geometry" />
        </mxCell>
        <mxCell id="FxGEw2DbVxyJyyO82ozZ-129" value="" style="endArrow=none;dashed=1;html=1;rounded=0;exitX=0.082;exitY=0.686;exitDx=0;exitDy=0;entryX=0.924;entryY=0.709;entryDx=0;entryDy=0;exitPerimeter=0;entryPerimeter=0;" edge="1" parent="1">
          <mxGeometry width="50" height="50" relative="1" as="geometry">
            <mxPoint x="497" y="750" as="sourcePoint" />
            <mxPoint x="573" y="750" as="targetPoint" />
          </mxGeometry>
        </mxCell>
        <mxCell id="FxGEw2DbVxyJyyO82ozZ-130" value="&lt;font style=&quot;font-size: 14px;&quot;&gt;Quantity&lt;/font&gt;" style="ellipse;whiteSpace=wrap;html=1;" vertex="1" parent="1">
          <mxGeometry x="575" y="760" width="75" height="30" as="geometry" />
        </mxCell>
        <mxCell id="FxGEw2DbVxyJyyO82ozZ-131" value="&lt;font style=&quot;font-size: 14px;&quot;&gt;UnitPrice&lt;/font&gt;" style="ellipse;whiteSpace=wrap;html=1;" vertex="1" parent="1">
          <mxGeometry x="705" y="680" width="70" height="30" as="geometry" />
        </mxCell>
        <mxCell id="FxGEw2DbVxyJyyO82ozZ-132" value="&lt;font style=&quot;font-size: 14px;&quot;&gt;NetPrice&lt;/font&gt;" style="ellipse;whiteSpace=wrap;html=1;" vertex="1" parent="1">
          <mxGeometry x="705" y="720" width="70" height="30" as="geometry" />
        </mxCell>
        <mxCell id="FxGEw2DbVxyJyyO82ozZ-133" value="&lt;font style=&quot;font-size: 14px;&quot;&gt;UnitCost&lt;/font&gt;" style="ellipse;whiteSpace=wrap;html=1;" vertex="1" parent="1">
          <mxGeometry x="660" y="750" width="70" height="30" as="geometry" />
        </mxCell>
        <mxCell id="FxGEw2DbVxyJyyO82ozZ-134" value="" style="endArrow=none;html=1;rounded=0;entryX=0;entryY=0.25;entryDx=0;entryDy=0;exitX=1;exitY=0.5;exitDx=0;exitDy=0;" edge="1" parent="1" source="FxGEw2DbVxyJyyO82ozZ-125">
          <mxGeometry width="50" height="50" relative="1" as="geometry">
            <mxPoint x="525" y="690" as="sourcePoint" />
            <mxPoint x="575" y="669.9999999999998" as="targetPoint" />
          </mxGeometry>
        </mxCell>
        <mxCell id="FxGEw2DbVxyJyyO82ozZ-135" value="" style="endArrow=none;html=1;rounded=0;entryX=0;entryY=0.5;entryDx=0;entryDy=0;exitX=0.933;exitY=0.239;exitDx=0;exitDy=0;exitPerimeter=0;" edge="1" parent="1" source="FxGEw2DbVxyJyyO82ozZ-127">
          <mxGeometry width="50" height="50" relative="1" as="geometry">
            <mxPoint x="565" y="675" as="sourcePoint" />
            <mxPoint x="575" y="679.9999999999998" as="targetPoint" />
          </mxGeometry>
        </mxCell>
        <mxCell id="FxGEw2DbVxyJyyO82ozZ-136" value="" style="endArrow=none;html=1;rounded=0;exitX=0.737;exitY=0.065;exitDx=0;exitDy=0;exitPerimeter=0;" edge="1" parent="1" source="FxGEw2DbVxyJyyO82ozZ-128">
          <mxGeometry width="50" height="50" relative="1" as="geometry">
            <mxPoint x="575" y="685" as="sourcePoint" />
            <mxPoint x="585" y="700" as="targetPoint" />
          </mxGeometry>
        </mxCell>
        <mxCell id="FxGEw2DbVxyJyyO82ozZ-137" value="" style="endArrow=none;html=1;rounded=0;entryX=0;entryY=0.25;entryDx=0;entryDy=0;exitX=0.4;exitY=0;exitDx=0;exitDy=0;exitPerimeter=0;" edge="1" parent="1" source="FxGEw2DbVxyJyyO82ozZ-130">
          <mxGeometry width="50" height="50" relative="1" as="geometry">
            <mxPoint x="585" y="695" as="sourcePoint" />
            <mxPoint x="605" y="700" as="targetPoint" />
          </mxGeometry>
        </mxCell>
        <mxCell id="FxGEw2DbVxyJyyO82ozZ-138" value="" style="endArrow=none;html=1;rounded=0;entryX=0.608;entryY=1.051;entryDx=0;entryDy=0;exitX=0;exitY=0;exitDx=0;exitDy=0;entryPerimeter=0;" edge="1" parent="1" source="FxGEw2DbVxyJyyO82ozZ-133">
          <mxGeometry width="50" height="50" relative="1" as="geometry">
            <mxPoint x="595" y="705" as="sourcePoint" />
            <mxPoint x="629.7200000000003" y="702.04" as="targetPoint" />
          </mxGeometry>
        </mxCell>
        <mxCell id="FxGEw2DbVxyJyyO82ozZ-139" value="" style="endArrow=none;html=1;rounded=0;entryX=1;entryY=1;entryDx=0;entryDy=0;exitX=0.027;exitY=0.259;exitDx=0;exitDy=0;exitPerimeter=0;" edge="1" parent="1" source="FxGEw2DbVxyJyyO82ozZ-132">
          <mxGeometry width="50" height="50" relative="1" as="geometry">
            <mxPoint x="680" y="764" as="sourcePoint" />
            <mxPoint x="665" y="699.9999999999998" as="targetPoint" />
          </mxGeometry>
        </mxCell>
        <mxCell id="FxGEw2DbVxyJyyO82ozZ-140" value="" style="endArrow=none;html=1;rounded=0;entryX=1;entryY=0.25;entryDx=0;entryDy=0;exitX=0;exitY=0.5;exitDx=0;exitDy=0;" edge="1" parent="1" source="FxGEw2DbVxyJyyO82ozZ-131">
          <mxGeometry width="50" height="50" relative="1" as="geometry">
            <mxPoint x="690" y="774" as="sourcePoint" />
            <mxPoint x="665" y="669.9999999999998" as="targetPoint" />
          </mxGeometry>
        </mxCell>
        <mxCell id="FxGEw2DbVxyJyyO82ozZ-142" value="" style="endArrow=none;html=1;rounded=0;entryX=0.75;entryY=1;entryDx=0;entryDy=0;exitX=0;exitY=0.5;exitDx=0;exitDy=0;" edge="1" parent="1" target="FxGEw2DbVxyJyyO82ozZ-82">
          <mxGeometry width="50" height="50" relative="1" as="geometry">
            <mxPoint x="575" y="555" as="sourcePoint" />
            <mxPoint x="770" y="550" as="targetPoint" />
          </mxGeometry>
        </mxCell>
        <mxCell id="FxGEw2DbVxyJyyO82ozZ-143" value="" style="endArrow=none;html=1;rounded=0;exitX=0.342;exitY=0.021;exitDx=0;exitDy=0;exitPerimeter=0;entryX=0.5;entryY=1;entryDx=0;entryDy=0;" edge="1" parent="1">
          <mxGeometry width="50" height="50" relative="1" as="geometry">
            <mxPoint x="605.78" y="660.8399999999999" as="sourcePoint" />
            <mxPoint x="615" y="580" as="targetPoint" />
          </mxGeometry>
        </mxCell>
        <mxCell id="FxGEw2DbVxyJyyO82ozZ-144" value="" style="endArrow=none;html=1;rounded=0;entryX=0;entryY=1;entryDx=0;entryDy=0;exitX=1;exitY=0.5;exitDx=0;exitDy=0;" edge="1" parent="1" target="FxGEw2DbVxyJyyO82ozZ-46">
          <mxGeometry width="50" height="50" relative="1" as="geometry">
            <mxPoint x="655" y="555" as="sourcePoint" />
            <mxPoint x="770" y="550" as="targetPoint" />
          </mxGeometry>
        </mxCell>
        <mxCell id="FxGEw2DbVxyJyyO82ozZ-145" value="&lt;font style=&quot;font-size: 16px;&quot;&gt;GeoLocation&lt;/font&gt;" style="html=1;whiteSpace=wrap;" vertex="1" parent="1">
          <mxGeometry x="80" y="540" width="110" height="40" as="geometry" />
        </mxCell>
        <mxCell id="FxGEw2DbVxyJyyO82ozZ-146" value="&lt;font style=&quot;font-size: 14px;&quot;&gt;&lt;u&gt;GeoLocationKey&lt;/u&gt;&lt;/font&gt;" style="ellipse;whiteSpace=wrap;html=1;" vertex="1" parent="1">
          <mxGeometry x="-80" y="495" width="130" height="30" as="geometry" />
        </mxCell>
        <mxCell id="FxGEw2DbVxyJyyO82ozZ-147" value="&lt;font style=&quot;font-size: 14px;&quot;&gt;State&lt;/font&gt;" style="ellipse;whiteSpace=wrap;html=1;" vertex="1" parent="1">
          <mxGeometry x="45" y="640" width="60" height="30" as="geometry" />
        </mxCell>
        <mxCell id="FxGEw2DbVxyJyyO82ozZ-148" value="&lt;font style=&quot;font-size: 14px;&quot;&gt;StateCode&lt;/font&gt;" style="ellipse;whiteSpace=wrap;html=1;" vertex="1" parent="1">
          <mxGeometry x="-35" y="610" width="80" height="30" as="geometry" />
        </mxCell>
        <mxCell id="FxGEw2DbVxyJyyO82ozZ-149" value="&lt;font style=&quot;font-size: 14px;&quot;&gt;Country&lt;/font&gt;" style="ellipse;whiteSpace=wrap;html=1;" vertex="1" parent="1">
          <mxGeometry x="-80" y="580" width="60" height="30" as="geometry" />
        </mxCell>
        <mxCell id="FxGEw2DbVxyJyyO82ozZ-150" value="&lt;font style=&quot;font-size: 14px;&quot;&gt;CountryCode&lt;/font&gt;" style="ellipse;whiteSpace=wrap;html=1;" vertex="1" parent="1">
          <mxGeometry x="-100" y="533" width="110" height="35" as="geometry" />
        </mxCell>
        <mxCell id="FxGEw2DbVxyJyyO82ozZ-151" value="&lt;font style=&quot;font-size: 14px;&quot;&gt;NumCustomers&lt;/font&gt;" style="ellipse;whiteSpace=wrap;html=1;" vertex="1" parent="1">
          <mxGeometry x="10" y="455" width="110" height="30" as="geometry" />
        </mxCell>
        <mxCell id="FxGEw2DbVxyJyyO82ozZ-152" value="" style="endArrow=none;html=1;rounded=0;entryX=1;entryY=0.5;entryDx=0;entryDy=0;exitX=0;exitY=0.25;exitDx=0;exitDy=0;" edge="1" parent="1" source="FxGEw2DbVxyJyyO82ozZ-145" target="FxGEw2DbVxyJyyO82ozZ-146">
          <mxGeometry width="50" height="50" relative="1" as="geometry">
            <mxPoint x="200" y="550" as="sourcePoint" />
            <mxPoint x="250" y="500" as="targetPoint" />
          </mxGeometry>
        </mxCell>
        <mxCell id="FxGEw2DbVxyJyyO82ozZ-153" value="" style="endArrow=none;html=1;rounded=0;exitX=0;exitY=0.5;exitDx=0;exitDy=0;" edge="1" parent="1" source="FxGEw2DbVxyJyyO82ozZ-145">
          <mxGeometry width="50" height="50" relative="1" as="geometry">
            <mxPoint x="200" y="550" as="sourcePoint" />
            <mxPoint x="4.140794058146639" y="555.5811834016831" as="targetPoint" />
          </mxGeometry>
        </mxCell>
        <mxCell id="FxGEw2DbVxyJyyO82ozZ-154" value="" style="endArrow=none;html=1;rounded=0;entryX=1;entryY=0;entryDx=0;entryDy=0;" edge="1" parent="1" target="FxGEw2DbVxyJyyO82ozZ-149">
          <mxGeometry width="50" height="50" relative="1" as="geometry">
            <mxPoint x="80" y="570" as="sourcePoint" />
            <mxPoint x="14" y="565" as="targetPoint" />
          </mxGeometry>
        </mxCell>
        <mxCell id="FxGEw2DbVxyJyyO82ozZ-155" value="" style="endArrow=none;html=1;rounded=0;exitX=0;exitY=1;exitDx=0;exitDy=0;entryX=0.766;entryY=0.036;entryDx=0;entryDy=0;entryPerimeter=0;" edge="1" parent="1" source="FxGEw2DbVxyJyyO82ozZ-145" target="FxGEw2DbVxyJyyO82ozZ-148">
          <mxGeometry width="50" height="50" relative="1" as="geometry">
            <mxPoint x="100" y="580" as="sourcePoint" />
            <mxPoint x="24" y="575" as="targetPoint" />
          </mxGeometry>
        </mxCell>
        <mxCell id="FxGEw2DbVxyJyyO82ozZ-156" value="" style="endArrow=none;html=1;rounded=0;exitX=0.182;exitY=1.012;exitDx=0;exitDy=0;entryX=0.5;entryY=0;entryDx=0;entryDy=0;exitPerimeter=0;" edge="1" parent="1" source="FxGEw2DbVxyJyyO82ozZ-145" target="FxGEw2DbVxyJyyO82ozZ-147">
          <mxGeometry width="50" height="50" relative="1" as="geometry">
            <mxPoint x="110" y="590" as="sourcePoint" />
            <mxPoint x="34" y="585" as="targetPoint" />
          </mxGeometry>
        </mxCell>
        <mxCell id="FxGEw2DbVxyJyyO82ozZ-157" value="" style="endArrow=none;html=1;rounded=0;exitX=0.084;exitY=0.016;exitDx=0;exitDy=0;exitPerimeter=0;" edge="1" parent="1" source="FxGEw2DbVxyJyyO82ozZ-145" target="FxGEw2DbVxyJyyO82ozZ-151">
          <mxGeometry width="50" height="50" relative="1" as="geometry">
            <mxPoint x="110" y="590" as="sourcePoint" />
            <mxPoint x="85" y="650" as="targetPoint" />
          </mxGeometry>
        </mxCell>
        <mxCell id="FxGEw2DbVxyJyyO82ozZ-159" value="" style="rhombus;whiteSpace=wrap;html=1;" vertex="1" parent="1">
          <mxGeometry x="570" y="530" width="90" height="60" as="geometry" />
        </mxCell>
        <mxCell id="FxGEw2DbVxyJyyO82ozZ-160" value="&lt;font style=&quot;font-size: 14px;&quot;&gt;has&lt;/font&gt;" style="rhombus;whiteSpace=wrap;html=1;" vertex="1" parent="1">
          <mxGeometry x="575" y="535" width="80" height="50" as="geometry" />
        </mxCell>
        <mxCell id="FxGEw2DbVxyJyyO82ozZ-161" value="" style="endArrow=none;html=1;rounded=0;exitX=0.388;exitY=0.073;exitDx=0;exitDy=0;exitPerimeter=0;entryX=0.528;entryY=1.003;entryDx=0;entryDy=0;entryPerimeter=0;" edge="1" parent="1" target="FxGEw2DbVxyJyyO82ozZ-159">
          <mxGeometry width="50" height="50" relative="1" as="geometry">
            <mxPoint x="609.9200000000001" y="662.9199999999998" as="sourcePoint" />
            <mxPoint x="620" y="600" as="targetPoint" />
          </mxGeometry>
        </mxCell>
        <mxCell id="FxGEw2DbVxyJyyO82ozZ-162" value="" style="rounded=0;whiteSpace=wrap;html=1;" vertex="1" parent="1">
          <mxGeometry x="570" y="650" width="100" height="50" as="geometry" />
        </mxCell>
        <mxCell id="FxGEw2DbVxyJyyO82ozZ-163" value="&lt;font style=&quot;font-size: 16px;&quot;&gt;OrderRows&lt;/font&gt;" style="html=1;whiteSpace=wrap;" vertex="1" parent="1">
          <mxGeometry x="575" y="655" width="90" height="40" as="geometry" />
        </mxCell>
        <mxCell id="FxGEw2DbVxyJyyO82ozZ-164" value="&lt;font style=&quot;font-size: 16px;&quot;&gt;CurrencyExchange&lt;/font&gt;" style="html=1;whiteSpace=wrap;" vertex="1" parent="1">
          <mxGeometry x="230" y="615" width="150" height="40" as="geometry" />
        </mxCell>
        <mxCell id="FxGEw2DbVxyJyyO82ozZ-165" value="&lt;font style=&quot;font-size: 14px;&quot;&gt;Date&lt;/font&gt;" style="ellipse;whiteSpace=wrap;html=1;" vertex="1" parent="1">
          <mxGeometry x="220" y="695" width="60" height="30" as="geometry" />
        </mxCell>
        <mxCell id="FxGEw2DbVxyJyyO82ozZ-166" value="&lt;font style=&quot;font-size: 14px;&quot;&gt;FromCurrency&lt;/font&gt;" style="ellipse;whiteSpace=wrap;html=1;" vertex="1" parent="1">
          <mxGeometry x="110" y="710" width="110" height="35" as="geometry" />
        </mxCell>
        <mxCell id="FxGEw2DbVxyJyyO82ozZ-167" value="&lt;font style=&quot;font-size: 14px;&quot;&gt;ToCurrency&lt;/font&gt;" style="ellipse;whiteSpace=wrap;html=1;" vertex="1" parent="1">
          <mxGeometry x="235" y="730" width="110" height="30" as="geometry" />
        </mxCell>
        <mxCell id="FxGEw2DbVxyJyyO82ozZ-168" value="&lt;font style=&quot;font-size: 14px;&quot;&gt;Exchange&lt;/font&gt;" style="ellipse;whiteSpace=wrap;html=1;" vertex="1" parent="1">
          <mxGeometry x="330" y="700" width="90" height="30" as="geometry" />
        </mxCell>
        <mxCell id="FxGEw2DbVxyJyyO82ozZ-169" value="" style="endArrow=none;html=1;rounded=0;exitX=0.5;exitY=0;exitDx=0;exitDy=0;entryX=0.094;entryY=0.962;entryDx=0;entryDy=0;entryPerimeter=0;" edge="1" parent="1" source="FxGEw2DbVxyJyyO82ozZ-166" target="FxGEw2DbVxyJyyO82ozZ-164">
          <mxGeometry width="50" height="50" relative="1" as="geometry">
            <mxPoint x="330" y="590" as="sourcePoint" />
            <mxPoint x="240" y="660" as="targetPoint" />
          </mxGeometry>
        </mxCell>
        <mxCell id="FxGEw2DbVxyJyyO82ozZ-170" value="" style="endArrow=none;html=1;rounded=0;entryX=0.25;entryY=1;entryDx=0;entryDy=0;" edge="1" parent="1" source="FxGEw2DbVxyJyyO82ozZ-165" target="FxGEw2DbVxyJyyO82ozZ-164">
          <mxGeometry width="50" height="50" relative="1" as="geometry">
            <mxPoint x="175" y="720" as="sourcePoint" />
            <mxPoint x="250" y="670" as="targetPoint" />
          </mxGeometry>
        </mxCell>
        <mxCell id="FxGEw2DbVxyJyyO82ozZ-171" value="" style="endArrow=none;html=1;rounded=0;entryX=0.5;entryY=1;entryDx=0;entryDy=0;" edge="1" parent="1" source="FxGEw2DbVxyJyyO82ozZ-167" target="FxGEw2DbVxyJyyO82ozZ-164">
          <mxGeometry width="50" height="50" relative="1" as="geometry">
            <mxPoint x="185" y="730" as="sourcePoint" />
            <mxPoint x="260" y="680" as="targetPoint" />
          </mxGeometry>
        </mxCell>
        <mxCell id="FxGEw2DbVxyJyyO82ozZ-172" value="" style="endArrow=none;html=1;rounded=0;exitX=0.3;exitY=0.161;exitDx=0;exitDy=0;entryX=0.75;entryY=1;entryDx=0;entryDy=0;exitPerimeter=0;" edge="1" parent="1" source="FxGEw2DbVxyJyyO82ozZ-168" target="FxGEw2DbVxyJyyO82ozZ-164">
          <mxGeometry width="50" height="50" relative="1" as="geometry">
            <mxPoint x="195" y="740" as="sourcePoint" />
            <mxPoint x="270" y="690" as="targetPoint" />
          </mxGeometry>
        </mxCell>
        <mxCell id="FxGEw2DbVxyJyyO82ozZ-176" value="Text" style="text;html=1;align=center;verticalAlign=middle;whiteSpace=wrap;rounded=0;" vertex="1" parent="1">
          <mxGeometry x="-410" y="385" width="60" height="30" as="geometry" />
        </mxCell>
        <mxCell id="FxGEw2DbVxyJyyO82ozZ-177" value="Text" style="text;html=1;align=center;verticalAlign=middle;whiteSpace=wrap;rounded=0;" vertex="1" parent="1">
          <mxGeometry x="415" y="1010" width="60" height="30" as="geometry" />
        </mxCell>
        <mxCell id="FxGEw2DbVxyJyyO82ozZ-178" value="Text" style="text;html=1;align=center;verticalAlign=middle;whiteSpace=wrap;rounded=0;" vertex="1" parent="1">
          <mxGeometry x="1245" y="345" width="60" height="30" as="geometry" />
        </mxCell>
        <mxCell id="FxGEw2DbVxyJyyO82ozZ-179" value="Text" style="text;html=1;align=center;verticalAlign=middle;whiteSpace=wrap;rounded=0;" vertex="1" parent="1">
          <mxGeometry x="310" y="-210" width="60" height="30" as="geometry" />
        </mxCell>
      </root>
    </mxGraphModel>
  </diagram>
</mxfile>
